<svg width="60" height="98" viewBox="0 0 60 98" fill="none" xmlns="http://www.w3.org/2000/svg">
<path fill-rule="evenodd" clip-rule="evenodd" d="M46.067 24.8682C37.4354 18.9088 27.9329 18.3031 17.3181 18.8354C15.5258 18.9257 11.1588 19.3035 7.89202 20.5654C5.58172 21.4572 3.83676 22.8155 3.71758 24.7321C3.61215 26.407 4.70162 27.7132 6.41448 28.683C10.1336 30.7893 16.8215 31.3384 18.8751 31.3354C28.1254 31.3185 37.4476 29.3316 45.9753 25.7385C46.5009 26.1117 47.025 26.5064 47.546 26.9224C49.1137 28.1782 50.8526 29.8333 52.0612 31.7254C53.2362 33.564 53.9131 35.629 53.3875 37.7643C52.2919 42.2201 47.4544 45.6296 41.4861 48.1657C40.1858 48.7194 38.832 49.2287 37.4476 49.6983C36.647 49.1507 35.7363 48.6475 34.7385 48.187C26.9978 44.6139 14.12 43.5095 10.2283 43.7023C8.49557 43.7879 5.30517 43.9026 2.98265 44.8999C1.32174 45.6127 0.0978002 46.7691 0.00459373 48.6046C-0.0794449 50.2398 0.996254 51.4773 2.68314 52.3721C6.32583 54.304 12.8625 54.6481 14.9895 54.6298C19.8255 54.59 29.0483 53.296 37.3376 50.5411C38.9191 51.6822 39.9673 53.0145 40.1644 54.5839C40.4394 56.7666 38.8518 58.7689 36.4208 60.5601C35.6874 61.1 34.8776 61.6201 34.0143 62.1141C33.9333 62.0912 33.8538 62.0698 33.7728 62.0468C27.2652 60.2496 19.0203 60.167 15.3867 60.4499C13.7472 60.5769 10.7936 61.0128 8.6942 62.1646C7.19679 62.9876 6.13332 64.173 6.13943 65.8158C6.14555 67.5029 7.42292 68.4314 9.14189 68.8735C11.4873 69.4746 14.6487 69.1748 15.8222 69.0555C19.1272 68.7221 27.8871 66.4139 34.1075 62.9386C36.0068 63.5 37.7349 64.2189 39.1116 65.1382C40.5662 66.1064 41.6282 67.2964 42.0575 68.7664C43.1134 72.3931 40.4088 75.4401 36.4498 77.8309C35.2443 78.559 33.9211 79.2243 32.5413 79.8224C31.513 78.7226 30.0354 77.8171 28.3042 77.1089C24.2246 75.4416 18.7391 74.8451 14.6869 75.2015C13.2888 75.3238 10.8823 75.668 9.20915 76.6378C7.99899 77.3383 7.16622 78.3601 7.22886 79.8102C7.30373 81.5723 8.49251 82.6614 10.1091 83.3115C12.3583 84.2139 15.4463 84.2567 17.0767 84.295C20.2778 84.3684 26.6937 83.0958 32.332 80.7402C32.7109 81.2251 32.9936 81.7482 33.1616 82.3141C33.7973 84.4434 32.7751 87.0972 29.2485 90.3844C27.5402 91.9752 25.67 93.3839 23.5706 94.4103C20.5452 95.891 17.4021 96.6711 14.1032 97.2401C13.8954 97.2768 13.7549 97.4741 13.7915 97.6821C13.8267 97.8901 14.0253 98.0309 14.2331 97.9942C17.6038 97.4129 20.8156 96.6099 23.9067 95.0971C26.0734 94.0371 28.0063 92.5855 29.7695 90.9442C33.6078 87.3664 34.5857 84.4128 33.8951 82.0954C33.7178 81.5035 33.4306 80.9497 33.0501 80.4327C34.3886 79.8454 35.6706 79.1953 36.8441 78.4855C41.1453 75.8883 43.9385 72.491 42.7909 68.5523C41.9429 65.643 38.8854 63.6759 35.0059 62.417C35.6675 62.0162 36.294 61.6033 36.8731 61.1765C39.5684 59.1911 41.2278 56.9074 40.9238 54.4891C40.7205 52.8784 39.7289 51.4665 38.1964 50.249C39.4233 49.8222 40.6258 49.3633 41.7856 48.8693C48.0075 46.2246 52.9871 42.5933 54.13 37.9463C54.593 36.0649 54.2248 34.2309 53.3951 32.5346C52.1834 30.0643 49.9801 27.8922 48.0227 26.3259C47.6163 26.0001 47.2068 25.6865 46.7958 25.3867C47.7416 24.9737 48.6782 24.5424 49.6027 24.0896C51.89 22.9715 54.5931 21.5337 56.665 19.614C58.0799 18.3016 59.2014 16.7658 59.721 14.9594C60.4681 12.3728 59.6415 10.1702 58.1135 8.35454C56.636 6.59702 54.4937 5.2066 52.544 4.18482C44.0103 -0.287749 33.9532 -1.52673 24.8678 2.19787C24.6738 2.27741 24.5806 2.50073 24.66 2.69652C24.7395 2.89078 24.9625 2.98563 25.1581 2.90456C34.0311 -0.732846 43.8544 0.49387 52.1895 4.86243C54.0567 5.83985 56.1134 7.1645 57.5298 8.84707C58.8943 10.47 59.6552 12.434 58.9875 14.7468C58.3824 16.8454 56.888 18.5402 55.1003 19.9398C53.2698 21.373 51.1276 22.4943 49.2665 23.4028C48.2137 23.9168 47.1457 24.4062 46.067 24.8682ZM31.7941 80.139C30.8483 79.2045 29.5312 78.4366 28.0154 77.8171C24.0427 76.1927 18.7009 75.616 14.7541 75.9632C13.437 76.0795 11.1664 76.3854 9.59264 77.2986C8.63765 77.8523 7.94243 78.6339 7.99132 79.778C8.05397 81.2189 9.0716 82.0694 10.3948 82.6017C12.5569 83.469 15.5273 83.4935 17.095 83.5302C20.1846 83.6005 26.3316 82.3845 31.7941 80.139ZM33.0516 62.6449C26.7228 61.0082 18.9316 60.9409 15.4448 61.2117C13.8832 61.3325 11.0625 61.7363 9.0609 62.8361C7.82477 63.5137 6.89731 64.456 6.90342 65.8127C6.90801 67.1358 7.98368 67.7859 9.33136 68.1316C11.5836 68.7098 14.6197 68.4085 15.7458 68.2953C18.8766 67.9787 26.9978 65.8601 33.0516 62.6449ZM36.5278 50.0012C35.886 49.6035 35.1771 49.2318 34.4192 48.8815C26.7916 45.3603 14.1002 44.2759 10.2665 44.4655C8.59642 44.5481 5.52214 44.643 3.28366 45.6036C1.9039 46.194 0.845016 47.1194 0.767089 48.6444C0.722778 49.5178 1.11392 50.2367 1.77553 50.8348C2.49215 51.4849 3.51589 51.9912 4.67868 52.395C8.28165 53.6462 13.2094 53.8803 14.9833 53.865C19.6574 53.8267 28.4769 52.6015 36.5278 50.0012ZM45.2266 25.2231C36.8487 19.6216 27.6273 19.0832 17.3563 19.5987C15.6098 19.6874 11.3514 20.0499 8.16706 21.2782C7.13873 21.6759 6.22346 22.1608 5.55421 22.765C4.93385 23.3263 4.52893 23.9872 4.48004 24.7795C4.4235 25.6865 4.8208 26.4452 5.49769 27.0876C6.22959 27.7806 7.27624 28.3374 8.46501 28.7901C12.1413 30.1897 17.1623 30.5736 18.8736 30.5706C27.8596 30.5537 36.9159 28.657 45.2266 25.2231Z" fill="#7EA4EF"/>
</svg>
