<svg width="195" height="77" viewBox="0 0 195 77" fill="none" xmlns="http://www.w3.org/2000/svg">
	<rect opacity="0.9" x="1" y="45" width="194" height="32" rx="10" fill="#191919"/>
	<path d="M11.358 53.4545L15.6761 65.6989H15.8466L20.1648 53.4545H22.0114L16.6705 68H14.8523L9.51136 53.4545H11.358ZM26.2443 68.2557C25.553 68.2557 24.9257 68.1255 24.3622 67.8651C23.7988 67.5999 23.3513 67.2188 23.0199 66.7216C22.6884 66.2197 22.5227 65.6136 22.5227 64.9034C22.5227 64.2784 22.6458 63.7718 22.892 63.3835C23.1383 62.9905 23.4673 62.6828 23.8793 62.4602C24.2912 62.2377 24.7457 62.072 25.2429 61.9631C25.7448 61.8494 26.2491 61.7595 26.7557 61.6932C27.4186 61.608 27.956 61.544 28.3679 61.5014C28.7846 61.4541 29.0876 61.3759 29.277 61.267C29.4711 61.1581 29.5682 60.9687 29.5682 60.6989V60.642C29.5682 59.9413 29.3764 59.3968 28.9929 59.0085C28.6141 58.6203 28.0388 58.4261 27.267 58.4261C26.4669 58.4261 25.8395 58.6013 25.3849 58.9517C24.9304 59.3021 24.6108 59.6761 24.4261 60.0739L22.8352 59.5057C23.1193 58.8428 23.4981 58.3267 23.9716 57.9574C24.4498 57.5833 24.9706 57.3229 25.5341 57.1761C26.1023 57.0246 26.661 56.9489 27.2102 56.9489C27.5606 56.9489 27.9631 56.9915 28.4176 57.0767C28.8769 57.1572 29.3196 57.3253 29.7457 57.581C30.1766 57.8366 30.5341 58.2225 30.8182 58.7386C31.1023 59.2547 31.2443 59.946 31.2443 60.8125V68H29.5682V66.5227H29.483C29.3693 66.7595 29.1799 67.0128 28.9148 67.2827C28.6496 67.5526 28.2969 67.7822 27.8565 67.9716C27.4162 68.161 26.8788 68.2557 26.2443 68.2557ZM26.5 66.75C27.1629 66.75 27.7216 66.6198 28.1761 66.3594C28.6354 66.099 28.9811 65.7628 29.2131 65.3509C29.4498 64.9389 29.5682 64.5057 29.5682 64.0511V62.517C29.4972 62.6023 29.3409 62.6804 29.0994 62.7514C28.8627 62.8177 28.5881 62.8769 28.2756 62.929C27.9678 62.9763 27.6671 63.0189 27.3736 63.0568C27.0848 63.09 26.8504 63.1184 26.6705 63.142C26.2348 63.1989 25.8277 63.2912 25.4489 63.419C25.0748 63.5421 24.7718 63.7292 24.5398 63.9801C24.3125 64.2263 24.1989 64.5625 24.1989 64.9886C24.1989 65.571 24.4143 66.0114 24.8452 66.3097C25.2808 66.6032 25.8324 66.75 26.5 66.75ZM38.707 72.3182C37.8974 72.3182 37.2013 72.214 36.619 72.0057C36.0366 71.8021 35.5513 71.5322 35.163 71.196C34.7795 70.8646 34.4741 70.5095 34.2468 70.1307L35.582 69.1932C35.7335 69.392 35.9253 69.6193 36.1573 69.875C36.3893 70.1354 36.7066 70.3603 37.109 70.5497C37.5162 70.7438 38.0489 70.8409 38.707 70.8409C39.5877 70.8409 40.3145 70.6278 40.8874 70.2017C41.4603 69.7756 41.7468 69.108 41.7468 68.1989V65.983H41.6048C41.4817 66.1818 41.3065 66.428 41.0792 66.7216C40.8567 67.0104 40.5347 67.2685 40.1133 67.4957C39.6966 67.7183 39.1332 67.8295 38.4229 67.8295C37.5423 67.8295 36.7515 67.6212 36.0508 67.2045C35.3548 66.7879 34.8031 66.1818 34.396 65.3864C33.9935 64.5909 33.7923 63.625 33.7923 62.4886C33.7923 61.3712 33.9888 60.3982 34.3817 59.5696C34.7747 58.7363 35.3216 58.0923 36.0224 57.6378C36.7231 57.1785 37.5328 56.9489 38.4513 56.9489C39.1616 56.9489 39.725 57.0672 40.1417 57.304C40.5631 57.536 40.8851 57.8011 41.1076 58.0994C41.3349 58.393 41.5101 58.6345 41.6332 58.8239H41.8036V57.0909H43.4229V68.3125C43.4229 69.25 43.2099 70.0123 42.7837 70.5994C42.3623 71.1913 41.7942 71.6245 41.0792 71.8991C40.369 72.1785 39.5782 72.3182 38.707 72.3182ZM38.6502 66.3239C39.3226 66.3239 39.8907 66.17 40.3548 65.8622C40.8188 65.5545 41.1715 65.1117 41.413 64.5341C41.6545 63.9564 41.7752 63.2652 41.7752 62.4602C41.7752 61.6742 41.6568 60.9806 41.4201 60.3793C41.1834 59.7779 40.833 59.3068 40.369 58.9659C39.9049 58.625 39.332 58.4545 38.6502 58.4545C37.94 58.4545 37.3481 58.6345 36.8746 58.9943C36.4059 59.3542 36.0531 59.8371 35.8164 60.4432C35.5844 61.0492 35.4684 61.7216 35.4684 62.4602C35.4684 63.2178 35.5868 63.8878 35.8235 64.4702C36.065 65.0478 36.4201 65.5024 36.8888 65.8338C37.3623 66.1605 37.9495 66.3239 38.6502 66.3239ZM49.7013 68.2557C49.0101 68.2557 48.3827 68.1255 47.8192 67.8651C47.2558 67.5999 46.8084 67.2188 46.4769 66.7216C46.1455 66.2197 45.9798 65.6136 45.9798 64.9034C45.9798 64.2784 46.1029 63.7718 46.3491 63.3835C46.5953 62.9905 46.9244 62.6828 47.3363 62.4602C47.7482 62.2377 48.2028 62.072 48.6999 61.9631C49.2018 61.8494 49.7061 61.7595 50.2127 61.6932C50.8756 61.608 51.413 61.544 51.8249 61.5014C52.2416 61.4541 52.5446 61.3759 52.734 61.267C52.9281 61.1581 53.0252 60.9687 53.0252 60.6989V60.642C53.0252 59.9413 52.8335 59.3968 52.4499 59.0085C52.0711 58.6203 51.4959 58.4261 50.7241 58.4261C49.9239 58.4261 49.2965 58.6013 48.842 58.9517C48.3874 59.3021 48.0678 59.6761 47.8832 60.0739L46.2923 59.5057C46.5763 58.8428 46.9551 58.3267 47.4286 57.9574C47.9068 57.5833 48.4277 57.3229 48.9911 57.1761C49.5593 57.0246 50.118 56.9489 50.6673 56.9489C51.0176 56.9489 51.4201 56.9915 51.8746 57.0767C52.3339 57.1572 52.7766 57.3253 53.2028 57.581C53.6336 57.8366 53.9911 58.2225 54.2752 58.7386C54.5593 59.2547 54.7013 59.946 54.7013 60.8125V68H53.0252V66.5227H52.94C52.8263 66.7595 52.637 67.0128 52.3718 67.2827C52.1067 67.5526 51.7539 67.7822 51.3136 67.9716C50.8732 68.161 50.3358 68.2557 49.7013 68.2557ZM49.957 66.75C50.6199 66.75 51.1786 66.6198 51.6332 66.3594C52.0924 66.099 52.4381 65.7628 52.6701 65.3509C52.9068 64.9389 53.0252 64.5057 53.0252 64.0511V62.517C52.9542 62.6023 52.7979 62.6804 52.5565 62.7514C52.3197 62.8177 52.0451 62.8769 51.7326 62.929C51.4248 62.9763 51.1242 63.0189 50.8306 63.0568C50.5418 63.09 50.3074 63.1184 50.1275 63.142C49.6919 63.1989 49.2847 63.2912 48.9059 63.419C48.5318 63.5421 48.2288 63.7292 47.9968 63.9801C47.7695 64.2263 47.6559 64.5625 47.6559 64.9886C47.6559 65.571 47.8713 66.0114 48.3022 66.3097C48.7378 66.6032 49.2894 66.75 49.957 66.75ZM65.4879 59.5341L63.9822 59.9602C63.8875 59.7093 63.7479 59.4654 63.5632 59.2287C63.3833 58.9872 63.1371 58.7884 62.8246 58.6321C62.5121 58.4759 62.112 58.3977 61.6243 58.3977C60.9567 58.3977 60.4003 58.5516 59.9553 58.8594C59.5149 59.1624 59.2947 59.5483 59.2947 60.017C59.2947 60.4337 59.4463 60.7628 59.7493 61.0043C60.0523 61.2457 60.5258 61.447 61.1697 61.608L62.7891 62.0057C63.7644 62.2424 64.4912 62.6046 64.9695 63.0923C65.4477 63.5753 65.6868 64.1979 65.6868 64.9602C65.6868 65.5852 65.5069 66.1439 65.147 66.6364C64.7919 67.1288 64.2947 67.517 63.6555 67.8011C63.0163 68.0852 62.273 68.2273 61.4254 68.2273C60.3127 68.2273 59.3918 67.9858 58.6626 67.5028C57.9335 67.0199 57.4718 66.3144 57.2777 65.3864L58.8686 64.9886C59.0201 65.5758 59.3066 66.0161 59.728 66.3097C60.1541 66.6032 60.7105 66.75 61.397 66.75C62.1783 66.75 62.7985 66.5843 63.2578 66.2528C63.7218 65.9167 63.9538 65.5142 63.9538 65.0455C63.9538 64.6667 63.8213 64.3494 63.5561 64.0938C63.291 63.8333 62.8838 63.6392 62.3345 63.5114L60.5163 63.0852C59.5173 62.8485 58.7834 62.4815 58.3146 61.9844C57.8506 61.4825 57.6186 60.8551 57.6186 60.1023C57.6186 59.4867 57.7914 58.9422 58.1371 58.4688C58.4875 57.9953 58.9633 57.6236 59.5646 57.3537C60.1707 57.0838 60.8572 56.9489 61.6243 56.9489C62.7038 56.9489 63.5514 57.1856 64.1669 57.6591C64.7872 58.1326 65.2275 58.7576 65.4879 59.5341ZM78.4087 68.2273C77.3576 68.2273 76.4509 67.9953 75.6886 67.5312C74.931 67.0625 74.3462 66.4091 73.9343 65.571C73.5271 64.7282 73.3235 63.7481 73.3235 62.6307C73.3235 61.5133 73.5271 60.5284 73.9343 59.6761C74.3462 58.8191 74.9192 58.1515 75.6531 57.6733C76.3917 57.1903 77.2534 56.9489 78.2383 56.9489C78.8065 56.9489 79.3675 57.0436 79.9215 57.233C80.4755 57.4223 80.9798 57.7301 81.4343 58.1562C81.8888 58.5777 82.2511 59.1364 82.521 59.8324C82.7908 60.5284 82.9258 61.3854 82.9258 62.4034V63.1136H74.5167V61.6648H81.2212C81.2212 61.0492 81.0981 60.5 80.8519 60.017C80.6104 59.5341 80.2648 59.1529 79.815 58.8736C79.3699 58.5942 78.8443 58.4545 78.2383 58.4545C77.5707 58.4545 76.993 58.6203 76.5053 58.9517C76.0224 59.2784 75.6507 59.7045 75.3903 60.2301C75.1299 60.7557 74.9996 61.3191 74.9996 61.9205V62.8864C74.9996 63.7102 75.1417 64.4086 75.4258 64.9815C75.7146 65.5497 76.1147 65.983 76.6261 66.2812C77.1374 66.5748 77.7317 66.7216 78.4087 66.7216C78.8491 66.7216 79.2468 66.66 79.6019 66.5369C79.9618 66.4091 80.2719 66.2197 80.5323 65.9688C80.7927 65.7131 80.994 65.3958 81.136 65.017L82.7553 65.4716C82.5849 66.0208 82.2984 66.5038 81.896 66.9205C81.4935 67.3324 80.9963 67.6544 80.4045 67.8864C79.8126 68.1136 79.1474 68.2273 78.4087 68.2273ZM103.032 58H101.271C101.167 57.4934 100.984 57.0483 100.724 56.6648C100.468 56.2812 100.156 55.9593 99.7866 55.6989C99.422 55.4337 99.0172 55.2348 98.5721 55.1023C98.127 54.9697 97.663 54.9034 97.18 54.9034C96.2994 54.9034 95.5015 55.1259 94.7866 55.571C94.0763 56.0161 93.5105 56.6719 93.0891 57.5384C92.6725 58.4048 92.4641 59.4678 92.4641 60.7273C92.4641 61.9867 92.6725 63.0497 93.0891 63.9162C93.5105 64.7827 94.0763 65.4384 94.7866 65.8835C95.5015 66.3286 96.2994 66.5511 97.18 66.5511C97.663 66.5511 98.127 66.4848 98.5721 66.3523C99.0172 66.2197 99.422 66.0232 99.7866 65.7628C100.156 65.4976 100.468 65.1733 100.724 64.7898C100.984 64.4015 101.167 63.9564 101.271 63.4545H103.032C102.9 64.1979 102.658 64.8632 102.308 65.4503C101.958 66.0374 101.522 66.5369 101.001 66.9489C100.48 67.3561 99.8955 67.6662 99.2468 67.8793C98.6029 68.0923 97.9139 68.1989 97.18 68.1989C95.9395 68.1989 94.8363 67.8958 93.8704 67.2898C92.9045 66.6837 92.1445 65.822 91.5906 64.7045C91.0366 63.5871 90.7596 62.2614 90.7596 60.7273C90.7596 59.1932 91.0366 57.8674 91.5906 56.75C92.1445 55.6326 92.9045 54.7708 93.8704 54.1648C94.8363 53.5587 95.9395 53.2557 97.18 53.2557C97.9139 53.2557 98.6029 53.3622 99.2468 53.5753C99.8955 53.7884 100.48 54.1009 101.001 54.5128C101.522 54.92 101.958 55.4171 102.308 56.0043C102.658 56.5866 102.9 57.2519 103.032 58ZM112.526 63.5398V57.0909H114.202V68H112.526V66.1534H112.413C112.157 66.7074 111.759 67.1785 111.219 67.5668C110.68 67.9503 109.998 68.142 109.174 68.142C108.492 68.142 107.886 67.9929 107.356 67.6946C106.826 67.3916 106.409 66.937 106.106 66.331C105.803 65.7202 105.651 64.9508 105.651 64.0227V57.0909H107.327V63.9091C107.327 64.7045 107.55 65.339 107.995 65.8125C108.445 66.286 109.018 66.5227 109.714 66.5227C110.13 66.5227 110.554 66.4162 110.985 66.2031C111.421 65.9901 111.785 65.6634 112.079 65.223C112.377 64.7827 112.526 64.2216 112.526 63.5398ZM117.272 68V57.0909H118.892V58.7386H119.005C119.204 58.1989 119.564 57.7609 120.085 57.4247C120.606 57.0885 121.193 56.9205 121.846 56.9205C121.969 56.9205 122.123 56.9228 122.308 56.9276C122.493 56.9323 122.632 56.9394 122.727 56.9489V58.6534C122.67 58.6392 122.54 58.6179 122.336 58.5895C122.137 58.5563 121.927 58.5398 121.704 58.5398C121.174 58.5398 120.7 58.651 120.284 58.8736C119.872 59.0914 119.545 59.3944 119.304 59.7827C119.067 60.1662 118.949 60.6042 118.949 61.0966V68H117.272ZM124.714 68V57.0909H126.333V58.7386H126.447C126.646 58.1989 127.005 57.7609 127.526 57.4247C128.047 57.0885 128.634 56.9205 129.288 56.9205C129.411 56.9205 129.565 56.9228 129.749 56.9276C129.934 56.9323 130.074 56.9394 130.168 56.9489V58.6534C130.112 58.6392 129.981 58.6179 129.778 58.5895C129.579 58.5563 129.368 58.5398 129.146 58.5398C128.615 58.5398 128.142 58.651 127.725 58.8736C127.313 59.0914 126.987 59.3944 126.745 59.7827C126.508 60.1662 126.39 60.6042 126.39 61.0966V68H124.714ZM132.155 68V57.0909H133.831V68H132.155ZM132.24 55.6136L133.973 52.3182H135.934L133.718 55.6136H132.24ZM141.333 68.2273C140.31 68.2273 139.43 67.9858 138.691 67.5028C137.952 67.0199 137.384 66.3546 136.987 65.5071C136.589 64.6596 136.39 63.6913 136.39 62.6023C136.39 61.4943 136.594 60.5166 137.001 59.669C137.413 58.8168 137.986 58.1515 138.719 57.6733C139.458 57.1903 140.32 56.9489 141.305 56.9489C142.072 56.9489 142.763 57.0909 143.379 57.375C143.994 57.6591 144.498 58.0568 144.891 58.5682C145.284 59.0795 145.528 59.6761 145.623 60.358H143.947C143.819 59.8608 143.535 59.4205 143.094 59.0369C142.659 58.6487 142.072 58.4545 141.333 58.4545C140.68 58.4545 140.107 58.625 139.614 58.9659C139.127 59.3021 138.746 59.7779 138.471 60.3935C138.201 61.0043 138.066 61.7216 138.066 62.5455C138.066 63.3883 138.199 64.1222 138.464 64.7472C138.734 65.3722 139.112 65.8575 139.6 66.2031C140.093 66.5488 140.67 66.7216 141.333 66.7216C141.769 66.7216 142.164 66.6458 142.519 66.4943C142.874 66.3428 143.175 66.125 143.421 65.8409C143.667 65.5568 143.843 65.2159 143.947 64.8182H145.623C145.528 65.4621 145.294 66.0421 144.92 66.5582C144.55 67.0696 144.06 67.4768 143.45 67.7798C142.844 68.0781 142.138 68.2273 141.333 68.2273ZM154.948 63.5398V57.0909H156.624V68H154.948V66.1534H154.835C154.579 66.7074 154.181 67.1785 153.641 67.5668C153.102 67.9503 152.42 68.142 151.596 68.142C150.914 68.142 150.308 67.9929 149.778 67.6946C149.247 67.3916 148.831 66.937 148.528 66.331C148.225 65.7202 148.073 64.9508 148.073 64.0227V57.0909H149.749V63.9091C149.749 64.7045 149.972 65.339 150.417 65.8125C150.867 66.286 151.44 66.5227 152.136 66.5227C152.552 66.5227 152.976 66.4162 153.407 66.2031C153.843 65.9901 154.207 65.6634 154.501 65.223C154.799 64.7827 154.948 64.2216 154.948 63.5398ZM161.37 53.4545V68H159.694V53.4545H161.37ZM168.872 68.2273C167.887 68.2273 167.023 67.9929 166.28 67.5241C165.541 67.0554 164.964 66.3996 164.547 65.5568C164.135 64.714 163.929 63.7292 163.929 62.6023C163.929 61.4659 164.135 60.474 164.547 59.6264C164.964 58.7789 165.541 58.1207 166.28 57.652C167.023 57.1832 167.887 56.9489 168.872 56.9489C169.857 56.9489 170.719 57.1832 171.457 57.652C172.201 58.1207 172.778 58.7789 173.19 59.6264C173.607 60.474 173.815 61.4659 173.815 62.6023C173.815 63.7292 173.607 64.714 173.19 65.5568C172.778 66.3996 172.201 67.0554 171.457 67.5241C170.719 67.9929 169.857 68.2273 168.872 68.2273ZM168.872 66.7216C169.62 66.7216 170.236 66.5298 170.719 66.1463C171.202 65.7628 171.559 65.2585 171.791 64.6335C172.023 64.0085 172.139 63.3314 172.139 62.6023C172.139 61.8731 172.023 61.1937 171.791 60.5639C171.559 59.9342 171.202 59.4252 170.719 59.0369C170.236 58.6487 169.62 58.4545 168.872 58.4545C168.124 58.4545 167.509 58.6487 167.026 59.0369C166.543 59.4252 166.185 59.9342 165.953 60.5639C165.721 61.1937 165.605 61.8731 165.605 62.6023C165.605 63.3314 165.721 64.0085 165.953 64.6335C166.185 65.2585 166.543 65.7628 167.026 66.1463C167.509 66.5298 168.124 66.7216 168.872 66.7216ZM184.101 59.5341L182.596 59.9602C182.501 59.7093 182.361 59.4654 182.176 59.2287C181.997 58.9872 181.75 58.7884 181.438 58.6321C181.125 58.4759 180.725 58.3977 180.238 58.3977C179.57 58.3977 179.014 58.5516 178.569 58.8594C178.128 59.1624 177.908 59.5483 177.908 60.017C177.908 60.4337 178.06 60.7628 178.363 61.0043C178.666 61.2457 179.139 61.447 179.783 61.608L181.402 62.0057C182.378 62.2424 183.105 62.6046 183.583 63.0923C184.061 63.5753 184.3 64.1979 184.3 64.9602C184.3 65.5852 184.12 66.1439 183.76 66.6364C183.405 67.1288 182.908 67.517 182.269 67.8011C181.63 68.0852 180.886 68.2273 180.039 68.2273C178.926 68.2273 178.005 67.9858 177.276 67.5028C176.547 67.0199 176.085 66.3144 175.891 65.3864L177.482 64.9886C177.633 65.5758 177.92 66.0161 178.341 66.3097C178.767 66.6032 179.324 66.75 180.01 66.75C180.792 66.75 181.412 66.5843 181.871 66.2528C182.335 65.9167 182.567 65.5142 182.567 65.0455C182.567 64.6667 182.435 64.3494 182.169 64.0938C181.904 63.8333 181.497 63.6392 180.948 63.5114L179.13 63.0852C178.131 62.8485 177.397 62.4815 176.928 61.9844C176.464 61.4825 176.232 60.8551 176.232 60.1023C176.232 59.4867 176.405 58.9422 176.75 58.4688C177.101 57.9953 177.577 57.6236 178.178 57.3537C178.784 57.0838 179.471 56.9489 180.238 56.9489C181.317 56.9489 182.165 57.1856 182.78 57.6591C183.4 58.1326 183.841 58.7576 184.101 59.5341Z" fill="#BFBFBF"/>
	<rect width="156" height="42" rx="10" fill="#F04242"/>
	<path d="M17.1264 10.5455L24.6832 31.973H24.9815L32.5384 10.5455H35.7699L26.4233 36H23.2415L13.8949 10.5455H17.1264ZM39.337 36V16.9091H42.2702V36H39.337ZM40.8285 13.7273C40.2567 13.7273 39.7637 13.5326 39.3494 13.1431C38.9434 12.7537 38.7404 12.2855 38.7404 11.7386C38.7404 11.1918 38.9434 10.7236 39.3494 10.3342C39.7637 9.94472 40.2567 9.75 40.8285 9.75C41.4002 9.75 41.8891 9.94472 42.2951 10.3342C42.7094 10.7236 42.9165 11.1918 42.9165 11.7386C42.9165 12.2855 42.7094 12.7537 42.2951 13.1431C41.8891 13.5326 41.4002 13.7273 40.8285 13.7273ZM55.9452 16.9091V19.3949H46.0518V16.9091H55.9452ZM48.9353 12.3352H51.8685V30.5312C51.8685 31.3598 51.9887 31.9813 52.229 32.3956C52.4775 32.8016 52.7924 33.075 53.1736 33.2159C53.563 33.3485 53.9732 33.4148 54.404 33.4148C54.7272 33.4148 54.9923 33.3982 55.1995 33.3651C55.4066 33.3236 55.5724 33.2905 55.6966 33.2656L56.2932 35.9006C56.0944 35.9751 55.8168 36.0497 55.4605 36.1243C55.1042 36.2071 54.6526 36.2486 54.1057 36.2486C53.2771 36.2486 52.4651 36.0704 51.6697 35.7141C50.8825 35.3578 50.2279 34.8151 49.7059 34.0859C49.1921 33.3568 48.9353 32.437 48.9353 31.3267V12.3352ZM65.9754 36.4474C64.7657 36.4474 63.6678 36.2196 62.6817 35.7638C61.6957 35.2998 60.9127 34.6328 60.3327 33.7628C59.7526 32.8845 59.4626 31.8239 59.4626 30.581C59.4626 29.4872 59.6781 28.6006 60.1089 27.9212C60.5398 27.2334 61.1157 26.6948 61.8366 26.3054C62.5574 25.916 63.3529 25.6259 64.2229 25.4354C65.1012 25.2365 65.9837 25.0791 66.8703 24.9631C68.0303 24.8139 68.9708 24.7021 69.6917 24.6275C70.4208 24.5446 70.9511 24.4079 71.2826 24.2173C71.6223 24.0268 71.7922 23.6953 71.7922 23.223V23.1236C71.7922 21.8973 71.4566 20.9444 70.7854 20.2649C70.1225 19.5855 69.1158 19.2457 67.7652 19.2457C66.3648 19.2457 65.267 19.5523 64.4715 20.1655C63.676 20.7786 63.1167 21.4332 62.7936 22.1293L60.0095 21.1349C60.5067 19.9749 61.1695 19.0717 61.9981 18.4254C62.835 17.7708 63.7465 17.3151 64.7325 17.0582C65.7268 16.7931 66.7046 16.6605 67.6657 16.6605C68.2789 16.6605 68.9832 16.7351 69.7787 16.8842C70.5824 17.0251 71.3572 17.3192 72.1029 17.7667C72.8569 18.2141 73.4825 18.8894 73.9797 19.7926C74.4768 20.6958 74.7254 21.9055 74.7254 23.4219V36H71.7922V33.4148H71.643C71.4442 33.8291 71.1127 34.2724 70.6487 34.7447C70.1847 35.217 69.5674 35.6188 68.7968 35.9503C68.0262 36.2817 67.0857 36.4474 65.9754 36.4474ZM66.4229 33.8125C67.5829 33.8125 68.5606 33.5846 69.3561 33.1289C70.1598 32.6732 70.7647 32.0849 71.1707 31.364C71.585 30.6431 71.7922 29.8849 71.7922 29.0895V26.4048C71.6679 26.554 71.3944 26.6907 70.9719 26.815C70.5576 26.931 70.077 27.0346 69.5301 27.1257C68.9915 27.2086 68.4653 27.2831 67.9516 27.3494C67.4462 27.4074 67.036 27.4571 66.7211 27.4986C65.9588 27.598 65.2462 27.7596 64.5834 27.9833C63.9288 28.1987 63.3985 28.526 62.9925 28.9652C62.5947 29.3961 62.3959 29.9844 62.3959 30.7301C62.3959 31.7493 62.7729 32.5199 63.5269 33.0419C64.2892 33.5556 65.2545 33.8125 66.4229 33.8125ZM88.0835 36.3977C86.244 36.3977 84.6572 35.9917 83.3232 35.1797C81.9974 34.3594 80.9741 33.2159 80.2532 31.7493C79.5406 30.2744 79.1843 28.5592 79.1843 26.6037C79.1843 24.6482 79.5406 22.9247 80.2532 21.4332C80.9741 19.9335 81.9767 18.7652 83.261 17.9283C84.5536 17.0831 86.0617 16.6605 87.7852 16.6605C88.7795 16.6605 89.7614 16.8262 90.7308 17.1577C91.7003 17.4891 92.5827 18.0277 93.3782 18.7734C94.1737 19.5109 94.8075 20.4886 95.2798 21.7067C95.7521 22.9247 95.9883 24.4245 95.9883 26.206V27.4489H81.2724V24.9134H93.0053C93.0053 23.8362 92.7899 22.875 92.359 22.0298C91.9364 21.1847 91.3316 20.5176 90.5444 20.0288C89.7655 19.5399 88.8458 19.2955 87.7852 19.2955C86.6168 19.2955 85.6059 19.5855 84.7525 20.1655C83.9073 20.7372 83.2569 21.483 82.8011 22.4027C82.3454 23.3224 82.1175 24.3085 82.1175 25.3608V27.0511C82.1175 28.4929 82.3661 29.7151 82.8633 30.7177C83.3687 31.712 84.0689 32.4702 84.9638 32.9922C85.8587 33.5059 86.8986 33.7628 88.0835 33.7628C88.854 33.7628 89.5501 33.6551 90.1715 33.4396C90.8013 33.2159 91.344 32.8845 91.7997 32.4453C92.2554 31.9979 92.6076 31.4427 92.8562 30.7798L95.69 31.5753C95.3917 32.5365 94.8904 33.3816 94.1861 34.1108C93.4818 34.8317 92.6117 35.3951 91.576 35.8011C90.5402 36.1989 89.3761 36.3977 88.0835 36.3977Z" fill="#191919"/>
	<g clip-path="url(#clip0_304_64)">
	<path d="M136.469 37.3743L129.61 30.5153C131.503 28.0147 132.646 24.9065 132.646 21.5128C132.646 13.2962 125.93 6.58011 117.714 6.58011C109.497 6.58011 102.781 13.2605 102.781 21.5128C102.781 29.7651 109.497 36.4455 117.714 36.4455C120.893 36.4455 123.823 35.4452 126.252 33.7662L133.182 40.6967C133.647 41.1612 134.254 41.3755 134.826 41.3755C135.433 41.3755 136.04 41.1612 136.469 40.6967C137.398 39.7679 137.398 38.2675 136.469 37.3744L136.469 37.3743ZM103.495 21.5128C103.495 13.6892 109.89 7.29459 117.714 7.29459C125.537 7.29459 131.932 13.6892 131.932 21.5128C131.932 29.3364 125.537 35.731 117.714 35.731C109.89 35.731 103.495 29.3364 103.495 21.5128ZM135.969 40.1965C135.326 40.8394 134.29 40.8394 133.647 40.1965L126.823 33.3375C127.681 32.6587 128.467 31.9087 129.181 31.0868L136.005 37.9101C136.612 38.5176 136.612 39.5536 135.969 40.1965L135.969 40.1965Z" fill="black"/>
	<path d="M117.714 8.97369C110.783 8.97369 105.174 14.6181 105.174 21.5129C105.174 28.4076 110.783 34.052 117.714 34.052C124.644 34.052 130.253 28.4432 130.253 21.5129C130.253 14.5824 124.609 8.97369 117.714 8.97369V8.97369ZM117.714 9.68811C124.215 9.68811 129.538 14.9752 129.538 21.5128C129.538 24.2993 128.574 26.8358 126.966 28.8363L126.716 27.5502C126.502 26.4784 125.716 25.5853 124.68 25.2282L120.572 23.8707C122.108 22.5489 123.108 20.2982 123.108 18.1547C123.108 14.8325 120.679 12.1172 117.714 12.1172C114.749 12.1172 112.32 14.8322 112.32 18.1547C112.32 20.2623 113.32 22.5487 114.856 23.8707L110.748 25.2282C109.712 25.5856 108.926 26.4787 108.712 27.5502L108.461 28.8719C106.854 26.8714 105.889 24.2992 105.889 21.5485C105.889 15.0109 111.176 9.68805 117.714 9.68805L117.714 9.68811ZM113.034 18.1547C113.034 15.2252 115.141 12.8318 117.714 12.8318C120.286 12.8318 122.393 15.2253 122.393 18.1547C122.393 20.9768 120.357 24.2637 117.714 24.2637C115.07 24.2637 113.034 20.9771 113.034 18.1547V18.1547ZM109.033 29.5507L109.39 27.693C109.533 26.8714 110.14 26.1926 110.962 25.9068L115.249 24.478L116.463 26.55L115.82 33.1589C113.141 32.7301 110.783 31.444 109.033 29.5507L109.033 29.5507ZM116.499 33.2662L117.178 26.3714L116.178 24.6921C116.642 24.8708 117.142 24.9779 117.678 24.9779C118.214 24.9779 118.714 24.8708 119.178 24.6921L118.178 26.4068L118.893 33.2659C118.5 33.3015 118.107 33.3374 117.678 33.3374C117.285 33.3371 116.892 33.3015 116.499 33.2659L116.499 33.2662ZM119.607 33.159L118.964 26.5501L120.179 24.4781L124.465 25.9069C125.251 26.1571 125.859 26.8357 126.037 27.6931L126.395 29.5508C124.609 31.4442 122.251 32.7303 119.607 33.1591L119.607 33.159Z" fill="black"/>
	</g>
	<defs>
	<clipPath id="clip0_304_64">
	<rect width="37" height="37" fill="white" transform="translate(101 4)"/>
	</clipPath>
	</defs>
	</svg>
	